<?xml version="1.0" encoding="utf-8"?>
<!-- Generator: Adobe Illustrator 27.6.1, SVG Export Plug-In . SVG Version: 6.00 Build 0)  -->
<svg version="1.1" id="Livello_1" xmlns="http://www.w3.org/2000/svg" xmlns:xlink="http://www.w3.org/1999/xlink" x="0px" y="0px"
	 viewBox="0 0 344.51 43.92" style="enable-background:new 0 0 344.51 43.92;" xml:space="preserve">
<style type="text/css">
	.st0{fill:#F80017;}
</style>
<g>
	<path class="st0" d="M9.84,35.76L0,22.5L14.52,9.24h12.9L12.84,22.5l9.9,13.26H9.84z"/>
	<path class="st0" d="M61.08,1.38l-5.04,28.68c-0.8,4.44-2.66,7.86-5.58,10.26c-2.92,2.4-6.5,3.6-10.74,3.6
		c-3.84,0-6.87-0.96-9.09-2.88c-2.22-1.92-3.33-4.68-3.33-8.28c0-1.24,0.1-2.36,0.3-3.36h10.2c-0.12,0.64-0.18,1.22-0.18,1.74
		c0,1.2,0.3,2.1,0.9,2.7c0.6,0.6,1.44,0.9,2.52,0.9c1.24,0,2.27-0.39,3.09-1.17c0.82-0.78,1.37-1.95,1.65-3.51l5.04-28.68H61.08z"/>
	<path class="st0" d="M77.04,1.38L72.6,26.52c-0.16,1.04-0.24,1.76-0.24,2.16c0,1.84,0.52,3.25,1.56,4.23
		c1.04,0.98,2.58,1.47,4.62,1.47c2.4,0,4.36-0.68,5.88-2.04c1.52-1.36,2.5-3.3,2.94-5.82L91.8,1.38h10.26l-4.44,25.14
		c-0.68,3.8-2.03,7.01-4.05,9.63c-2.02,2.62-4.48,4.57-7.38,5.85c-2.9,1.28-6.05,1.92-9.45,1.92c-4.4,0-7.95-1.14-10.65-3.42
		s-4.05-5.58-4.05-9.9c0-1.28,0.12-2.64,0.36-4.08l4.38-25.14H77.04z"/>
	<path class="st0" d="M105.03,40.95c-2.86-1.98-4.29-4.79-4.29-8.43c0-0.36,0.04-0.9,0.12-1.62h10.68c-0.12,1.52,0.24,2.72,1.08,3.6
		c0.84,0.88,2.12,1.32,3.84,1.32c1.56,0,2.79-0.34,3.69-1.02c0.9-0.68,1.35-1.64,1.35-2.88c0-1.28-0.57-2.32-1.71-3.12
		c-1.14-0.8-2.91-1.7-5.31-2.7c-2.32-0.96-4.21-1.87-5.67-2.73c-1.46-0.86-2.73-2.03-3.81-3.51c-1.08-1.48-1.62-3.34-1.62-5.58
		c-0.04-2.76,0.64-5.16,2.04-7.2c1.4-2.04,3.34-3.6,5.82-4.68c2.48-1.08,5.32-1.62,8.52-1.62c2.88,0,5.44,0.45,7.68,1.35
		c2.24,0.9,3.98,2.2,5.22,3.9c1.24,1.7,1.86,3.71,1.86,6.03c0,0.6-0.02,1.04-0.06,1.32h-10.92c0.04-0.16,0.06-0.4,0.06-0.72
		c0-1.12-0.39-2.03-1.17-2.73c-0.78-0.7-1.85-1.05-3.21-1.05c-1.44,0-2.61,0.35-3.51,1.05c-0.9,0.7-1.35,1.65-1.35,2.85
		s0.56,2.21,1.68,3.03c1.12,0.82,2.86,1.77,5.22,2.85c2.36,1.08,4.29,2.08,5.79,3c1.5,0.92,2.79,2.15,3.87,3.69
		c1.08,1.54,1.62,3.43,1.62,5.67c0,2.48-0.66,4.7-1.98,6.66c-1.32,1.96-3.22,3.49-5.7,4.59c-2.48,1.1-5.38,1.65-8.7,1.65
		C111.6,43.92,107.89,42.93,105.03,40.95z"/>
	<path class="st0" d="M172.08,1.38l-1.38,8.1h-11.22l-6,34.02h-10.26l6-34.02h-11.16l1.44-8.1H172.08z"/>
	<path class="st0" d="M213.96,18.48c-1.6,1.64-3.52,2.78-5.76,3.42c2,0.44,3.58,1.42,4.74,2.94c1.16,1.52,1.74,3.3,1.74,5.34
		c0,0.64-0.06,1.26-0.18,1.86c-0.6,3.52-2.32,6.31-5.16,8.37c-2.84,2.06-6.46,3.09-10.86,3.09h-19.62l7.44-42.12h18.96
		c3.8,0,6.74,0.78,8.82,2.34c2.08,1.56,3.12,3.72,3.12,6.48c0,0.68-0.06,1.38-0.18,2.1C216.57,14.78,215.56,16.84,213.96,18.48z
		 M204.42,29.58c0-1.16-0.42-2.07-1.26-2.73c-0.84-0.66-2-0.99-3.48-0.99h-7.44l-1.68,9.48h7.56c1.76,0,3.16-0.4,4.2-1.2
		c1.04-0.8,1.7-1.96,1.98-3.48C204.38,30.18,204.42,29.82,204.42,29.58z M204.36,17.34c1.04-0.76,1.68-1.86,1.92-3.3
		c0.04-0.24,0.06-0.56,0.06-0.96c0-1.16-0.38-2.05-1.14-2.67c-0.76-0.62-1.88-0.93-3.36-0.93h-6.72l-1.56,9h6.66
		C201.94,18.48,203.32,18.1,204.36,17.34z"/>
	<path class="st0" d="M225.63,5.85C228.96,1.95,233.6,0,239.52,0c4.76,0,8.25,1.29,10.47,3.87c2.22,2.58,3.33,6.17,3.33,10.77
		c0,1.88-0.24,4.22-0.72,7.02c-1.16,6.64-3.42,11.91-6.78,15.81c-3.36,3.9-8,5.85-13.92,5.85c-4.76,0-8.23-1.29-10.41-3.87
		c-2.18-2.58-3.27-6.17-3.27-10.77c0-2.12,0.22-4.46,0.66-7.02C220.03,15.02,222.28,9.75,225.63,5.85z M243.12,15.84
		c0-2-0.4-3.54-1.2-4.62c-0.8-1.08-2.16-1.62-4.08-1.62c-2.76,0-4.77,1.06-6.03,3.18c-1.26,2.12-2.21,5.08-2.85,8.88
		c-0.44,2.48-0.66,4.42-0.66,5.82c0,2,0.4,3.54,1.2,4.62c0.8,1.08,2.16,1.62,4.08,1.62c2.76,0,4.77-1.06,6.03-3.18
		c1.26-2.12,2.21-5.08,2.85-8.88C242.9,19.18,243.12,17.24,243.12,15.84z"/>
	<path class="st0" d="M262.35,5.85c3.34-3.9,7.97-5.85,13.89-5.85c4.76,0,8.25,1.29,10.47,3.87c2.22,2.58,3.33,6.17,3.33,10.77
		c0,1.88-0.24,4.22-0.72,7.02c-1.16,6.64-3.42,11.91-6.78,15.81c-3.36,3.9-8,5.85-13.92,5.85c-4.76,0-8.23-1.29-10.41-3.87
		c-2.18-2.58-3.27-6.17-3.27-10.77c0-2.12,0.22-4.46,0.66-7.02C256.75,15.02,259,9.75,262.35,5.85z M279.84,15.84
		c0-2-0.4-3.54-1.2-4.62c-0.8-1.08-2.16-1.62-4.08-1.62c-2.76,0-4.77,1.06-6.03,3.18c-1.26,2.12-2.21,5.08-2.85,8.88
		c-0.44,2.48-0.66,4.42-0.66,5.82c0,2,0.4,3.54,1.2,4.62c0.8,1.08,2.16,1.62,4.08,1.62c2.76,0,4.77-1.06,6.03-3.18
		c1.26-2.12,2.21-5.08,2.85-8.88C279.61,19.18,279.84,17.24,279.84,15.84z"/>
	<path class="st0" d="M301.07,35.7h13.44l-1.38,7.8h-23.7l7.44-42.12h10.26L301.07,35.7z"/>
	<path class="st0" d="M321.77,9.24h12.9l9.84,13.26l-14.52,13.26h-12.9l14.58-13.26L321.77,9.24z"/>
</g>
</svg>
