<?xml version="1.0" encoding="utf-8"?>
<!-- Generator: Adobe Illustrator 27.6.1, SVG Export Plug-In . SVG Version: 6.00 Build 0)  -->
<svg version="1.1" id="Livello_1" xmlns="http://www.w3.org/2000/svg" xmlns:xlink="http://www.w3.org/1999/xlink" x="0px" y="0px"
	 viewBox="0 0 344.5 43.9" style="enable-background:new 0 0 344.5 43.9;" xml:space="preserve">
<style type="text/css">
	.st0{fill:url(#SVGID_1_);}
	.st1{fill:url(#SVGID_00000010285613093981264180000004475360521994085035_);}
	.st2{fill:url(#SVGID_00000150823586810925281360000010194817044680323245_);}
	.st3{fill:url(#SVGID_00000084513249595644207330000003797430195184058281_);}
	.st4{fill:url(#SVGID_00000067941932137078327520000005503075418097809074_);}
	.st5{fill:url(#SVGID_00000139984236020307318770000000578884823752550536_);}
	.st6{fill:url(#SVGID_00000121275116198656376900000009288032706571154613_);}
	.st7{fill:url(#SVGID_00000096032592741330254460000005727217688884954786_);}
	.st8{fill:url(#SVGID_00000165955910841168074030000016234493840813630366_);}
	.st9{fill:url(#SVGID_00000180365496318214978160000013693397111944725163_);}
</style>
<g>
	<g>
		<linearGradient id="SVGID_1_" gradientUnits="userSpaceOnUse" x1="13.71" y1="-7.251" x2="13.71" y2="33.6347">
			<stop  offset="0" style="stop-color:#FF4C00"/>
			<stop  offset="1" style="stop-color:#FF6656"/>
		</linearGradient>
		<path class="st0" d="M9.8,35.8L0,22.5L14.5,9.2h12.9L12.8,22.5l9.9,13.3C22.7,35.8,9.8,35.8,9.8,35.8z"/>
		
			<linearGradient id="SVGID_00000168815241244224365970000011292780045179092402_" gradientUnits="userSpaceOnUse" x1="44.19" y1="-7.251" x2="44.19" y2="33.6347">
			<stop  offset="0" style="stop-color:#FF4C00"/>
			<stop  offset="1" style="stop-color:#FF6656"/>
		</linearGradient>
		<path style="fill:url(#SVGID_00000168815241244224365970000011292780045179092402_);" d="M61.1,1.4l-5,28.7
			c-0.8,4.4-2.7,7.9-5.6,10.3c-2.9,2.4-6.5,3.6-10.7,3.6c-3.8,0-6.9-1-9.1-2.9c-2.2-1.9-3.3-4.7-3.3-8.3c0-1.2,0.1-2.4,0.3-3.4h10.2
			c-0.1,0.6-0.2,1.2-0.2,1.7c0,1.2,0.3,2.1,0.9,2.7c0.6,0.6,1.4,0.9,2.5,0.9c1.2,0,2.3-0.4,3.1-1.2s1.4-2,1.7-3.5l5-28.7
			C50.8,1.4,61.1,1.4,61.1,1.4z"/>
		
			<linearGradient id="SVGID_00000130608322919242028300000009151838123057542564_" gradientUnits="userSpaceOnUse" x1="82.05" y1="-7.251" x2="82.05" y2="33.6347">
			<stop  offset="0" style="stop-color:#FF4C00"/>
			<stop  offset="1" style="stop-color:#FF6656"/>
		</linearGradient>
		<path style="fill:url(#SVGID_00000130608322919242028300000009151838123057542564_);" d="M77,1.4l-4.4,25.1
			c-0.2,1-0.2,1.8-0.2,2.2c0,1.8,0.5,3.2,1.6,4.2s2.6,1.5,4.6,1.5c2.4,0,4.4-0.7,5.9-2s2.5-3.3,2.9-5.8l4.4-25.1h10.3l-4.4,25.1
			c-0.7,3.8-2,7-4.1,9.6c-2,2.6-4.5,4.6-7.4,5.8c-2.9,1.3-6.1,1.9-9.4,1.9c-4.4,0-7.9-1.1-10.7-3.4s-4-5.6-4-9.9
			c0-1.3,0.1-2.6,0.4-4.1l4.4-25.1C66.8,1.4,77,1.4,77,1.4z"/>
		
			<linearGradient id="SVGID_00000036244745745308769870000010009334302723591587_" gradientUnits="userSpaceOnUse" x1="117.63" y1="-7.251" x2="117.63" y2="33.6347">
			<stop  offset="0" style="stop-color:#FF4C00"/>
			<stop  offset="1" style="stop-color:#FF6656"/>
		</linearGradient>
		<path style="fill:url(#SVGID_00000036244745745308769870000010009334302723591587_);" d="M105,41c-2.9-2-4.3-4.8-4.3-8.4
			c0-0.4,0-0.9,0.1-1.6h10.7c-0.1,1.5,0.2,2.7,1.1,3.6c0.8,0.9,2.1,1.3,3.8,1.3c1.6,0,2.8-0.3,3.7-1s1.3-1.6,1.3-2.9
			c0-1.3-0.6-2.3-1.7-3.1s-2.9-1.7-5.3-2.7c-2.3-1-4.2-1.9-5.7-2.7c-1.5-0.9-2.7-2-3.8-3.5c-1.1-1.5-1.6-3.3-1.6-5.6
			c0-2.8,0.6-5.2,2-7.2s3.3-3.6,5.8-4.7s5.3-1.6,8.5-1.6c2.9,0,5.4,0.4,7.7,1.4s4,2.2,5.2,3.9c1.2,1.7,1.9,3.7,1.9,6
			c0,0.6,0,1-0.1,1.3h-10.9c0-0.2,0.1-0.4,0.1-0.7c0-1.1-0.4-2-1.2-2.7c-0.8-0.7-1.8-1.1-3.2-1.1c-1.4,0-2.6,0.4-3.5,1.1
			s-1.3,1.6-1.3,2.9s0.6,2.2,1.7,3c1.1,0.8,2.9,1.8,5.2,2.8s4.3,2.1,5.8,3c1.5,0.9,2.8,2.1,3.9,3.7s1.6,3.4,1.6,5.7
			c0,2.5-0.7,4.7-2,6.7c-1.3,2-3.2,3.5-5.7,4.6c-2.5,1.1-5.4,1.7-8.7,1.7C111.6,43.9,107.9,42.9,105,41z"/>
		
			<linearGradient id="SVGID_00000122717661210465137600000010191141775837739448_" gradientUnits="userSpaceOnUse" x1="155.07" y1="-7.251" x2="155.07" y2="33.6347">
			<stop  offset="0" style="stop-color:#FF4C00"/>
			<stop  offset="1" style="stop-color:#FF6656"/>
		</linearGradient>
		<path style="fill:url(#SVGID_00000122717661210465137600000010191141775837739448_);" d="M172.1,1.4l-1.4,8.1h-11.2l-6,34h-10.3
			l6-34h-11.2l1.4-8.1C139.5,1.4,172.1,1.4,172.1,1.4z"/>
		
			<linearGradient id="SVGID_00000026139419852707823140000004410965725304742549_" gradientUnits="userSpaceOnUse" x1="198.03" y1="-7.251" x2="198.03" y2="33.6347">
			<stop  offset="0" style="stop-color:#FF4C00"/>
			<stop  offset="1" style="stop-color:#FF6656"/>
		</linearGradient>
		<path style="fill:url(#SVGID_00000026139419852707823140000004410965725304742549_);" d="M214,18.5c-1.6,1.6-3.5,2.8-5.8,3.4
			c2,0.4,3.6,1.4,4.7,2.9s1.7,3.3,1.7,5.3c0,0.6-0.1,1.3-0.2,1.9c-0.6,3.5-2.3,6.3-5.2,8.4c-2.8,2.1-6.5,3.1-10.9,3.1h-19.6
			l7.4-42.1h19c3.8,0,6.7,0.8,8.8,2.3s3.1,3.7,3.1,6.5c0,0.7-0.1,1.4-0.2,2.1C216.6,14.8,215.6,16.8,214,18.5z M204.4,29.6
			c0-1.2-0.4-2.1-1.3-2.7s-2-1-3.5-1h-7.4l-1.7,9.5h7.6c1.8,0,3.2-0.4,4.2-1.2s1.7-2,2-3.5C204.4,30.2,204.4,29.8,204.4,29.6z
			 M204.4,17.3c1-0.8,1.7-1.9,1.9-3.3c0-0.2,0.1-0.6,0.1-1c0-1.2-0.4-2.1-1.1-2.7s-1.9-0.9-3.4-0.9h-6.7l-1.6,9h6.7
			C201.9,18.5,203.3,18.1,204.4,17.3z"/>
		
			<linearGradient id="SVGID_00000157994005667284122720000012910398150547895463_" gradientUnits="userSpaceOnUse" x1="235.77" y1="-7.251" x2="235.77" y2="33.6347">
			<stop  offset="0" style="stop-color:#FF4C00"/>
			<stop  offset="1" style="stop-color:#FF6656"/>
		</linearGradient>
		<path style="fill:url(#SVGID_00000157994005667284122720000012910398150547895463_);" d="M225.6,5.8C229,2,233.6,0,239.5,0
			c4.8,0,8.2,1.3,10.5,3.9s3.3,6.2,3.3,10.8c0,1.9-0.2,4.2-0.7,7c-1.2,6.6-3.4,11.9-6.8,15.8s-8,5.8-13.9,5.8
			c-4.8,0-8.2-1.3-10.4-3.9c-2.2-2.6-3.3-6.2-3.3-10.8c0-2.1,0.2-4.5,0.7-7C220,15,222.3,9.8,225.6,5.8z M243.1,15.8
			c0-2-0.4-3.5-1.2-4.6s-2.2-1.6-4.1-1.6c-2.8,0-4.8,1.1-6,3.2s-2.2,5.1-2.9,8.9c-0.4,2.5-0.7,4.4-0.7,5.8c0,2,0.4,3.5,1.2,4.6
			c0.8,1.1,2.2,1.6,4.1,1.6c2.8,0,4.8-1.1,6-3.2s2.2-5.1,2.9-8.9C242.9,19.2,243.1,17.2,243.1,15.8z"/>
		
			<linearGradient id="SVGID_00000033339872783672392850000018232876634402828172_" gradientUnits="userSpaceOnUse" x1="272.49" y1="-7.251" x2="272.49" y2="33.6347">
			<stop  offset="0" style="stop-color:#FF4C00"/>
			<stop  offset="1" style="stop-color:#FF6656"/>
		</linearGradient>
		<path style="fill:url(#SVGID_00000033339872783672392850000018232876634402828172_);" d="M262.4,5.8c3.3-3.9,8-5.8,13.9-5.8
			c4.8,0,8.2,1.3,10.5,3.9S290,10,290,14.6c0,1.9-0.2,4.2-0.7,7c-1.2,6.6-3.4,11.9-6.8,15.8s-8,5.8-13.9,5.8
			c-4.8,0-8.2-1.3-10.4-3.9s-3.3-6.2-3.3-10.8c0-2.1,0.2-4.5,0.7-7C256.8,15,259,9.8,262.4,5.8z M279.8,15.8c0-2-0.4-3.5-1.2-4.6
			c-0.8-1.1-2.2-1.6-4.1-1.6c-2.8,0-4.8,1.1-6,3.2s-2.2,5.1-2.9,8.9c-0.4,2.5-0.7,4.4-0.7,5.8c0,2,0.4,3.5,1.2,4.6
			c0.8,1.1,2.2,1.6,4.1,1.6c2.8,0,4.8-1.1,6-3.2s2.2-5.1,2.9-8.9C279.6,19.2,279.8,17.2,279.8,15.8z"/>
		
			<linearGradient id="SVGID_00000047765340934588436460000008659652964004644750_" gradientUnits="userSpaceOnUse" x1="301.97" y1="-7.251" x2="301.97" y2="33.6347">
			<stop  offset="0" style="stop-color:#FF4C00"/>
			<stop  offset="1" style="stop-color:#FF6656"/>
		</linearGradient>
		<path style="fill:url(#SVGID_00000047765340934588436460000008659652964004644750_);" d="M301.1,35.7h13.4l-1.4,7.8h-23.7
			l7.4-42.1h10.3L301.1,35.7z"/>
		
			<linearGradient id="SVGID_00000037665193344431288020000012843391757106074040_" gradientUnits="userSpaceOnUse" x1="330.8" y1="-7.251" x2="330.8" y2="33.6347">
			<stop  offset="0" style="stop-color:#FF4C00"/>
			<stop  offset="1" style="stop-color:#FF6656"/>
		</linearGradient>
		<path style="fill:url(#SVGID_00000037665193344431288020000012843391757106074040_);" d="M321.8,9.2h12.9l9.8,13.3L330,35.8h-12.9
			l14.6-13.3L321.8,9.2z"/>
	</g>
</g>
</svg>
